ply
format ascii 1.0
comment Created by Blender 3.3.0 - www.blender.org
element vertex 26
property float x
property float y
property float z
element face 48
property list uchar uint vertex_indices
end_header
-0.970823 -0.306772 0.000000
-0.841014 1.199243 0.841014
-1.181781 1.199243 0.000000
0.000000 1.199243 0.000000
0.841014 1.199243 0.841014
1.181781 1.199243 0.000000
0.771292 -0.306772 0.771292
1.249151 -0.985720 0.000000
0.970823 -0.306772 0.000000
0.000000 -0.985720 1.249151
-1.249151 -0.985720 0.000000
0.000000 -0.985720 0.000000
0.771292 -0.306772 -0.771292
0.000000 -0.985720 -1.249151
0.000000 -0.306772 -0.970823
-0.771292 -0.306772 0.771292
0.000000 -0.306772 0.970823
0.000000 1.199243 1.181781
0.841014 1.199243 -0.841014
0.000000 1.199243 -1.181781
-0.841014 1.199243 -0.841014
-0.771292 -0.306772 -0.771292
1.249151 -0.985720 1.249151
-1.249151 -0.985720 -1.249151
1.249151 -0.985720 -1.249151
-1.249151 -0.985720 1.249151
3 0 1 2
3 3 4 5
3 6 7 8
3 9 10 11
3 12 13 14
3 15 9 16
3 1 16 17
3 18 14 19
3 4 8 5
3 10 15 0
3 20 14 21
3 4 16 6
3 6 9 22
3 21 13 23
3 22 11 7
3 1 3 2
3 20 3 19
3 7 13 24
3 10 21 23
3 18 8 12
3 11 23 13
3 12 7 24
3 3 18 19
3 0 20 21
3 0 15 1
3 3 17 4
3 6 22 7
3 9 25 10
3 12 24 13
3 15 25 9
3 1 15 16
3 18 12 14
3 4 6 8
3 10 25 15
3 20 19 14
3 4 17 16
3 6 16 9
3 21 14 13
3 22 9 11
3 1 17 3
3 20 2 3
3 7 11 13
3 10 0 21
3 18 5 8
3 11 10 23
3 12 8 7
3 3 5 18
3 0 2 20
