ply
format ascii 1.0
comment Created by Blender 3.3.0 - www.blender.org
element vertex 26
property float x
property float y
property float z
element face 44
property list uchar uint vertex_indices
end_header
0.000000 1.203201 0.000000
0.746304 1.203201 0.746304
1.072114 1.203201 0.000000
-0.746304 1.203201 0.746304
-1.072114 1.203201 0.000000
-0.746304 1.203201 -0.746304
0.000000 1.203201 -1.114011
0.746304 1.203201 -0.746304
0.000000 -0.448009 0.000000
0.588118 -0.448009 0.588118
0.000000 -0.448009 0.877887
-0.588118 -0.448009 0.588118
-0.844870 -0.448009 0.000000
-0.588118 -0.448009 -0.588118
0.588118 -0.448009 -0.588118
0.000000 -0.448009 -0.877886
0.844870 -0.448009 0.000000
0.000000 1.203201 1.114011
-1.251654 -0.988329 1.251654
-0.636849 0.285549 -0.650382
-1.251654 -0.988329 -1.251654
-0.636849 0.285549 0.650382
0.636849 0.285549 -0.650382
0.636849 0.285549 0.650382
1.251654 -0.988329 -1.251654
1.251654 -0.988329 1.251654
3 0 1 2
3 3 0 4
3 5 0 6
3 0 7 6
3 8 9 10
3 8 11 12
3 13 8 12
3 14 8 15
3 5 15 13
3 1 16 2
3 5 12 4
3 3 12 11
3 1 10 9
3 3 10 17
3 7 15 6
3 7 16 14
3 18 19 20
3 21 22 19
3 23 24 22
3 25 20 24
3 22 20 19
3 21 25 23
3 0 17 1
3 3 17 0
3 5 4 0
3 0 2 7
3 8 16 9
3 8 10 11
3 13 15 8
3 14 16 8
3 5 6 15
3 1 9 16
3 5 13 12
3 3 4 12
3 1 17 10
3 3 11 10
3 7 14 15
3 7 2 16
3 18 21 19
3 21 23 22
3 23 25 24
3 25 18 20
3 22 24 20
3 21 18 25
