solid Exported from Blender-3.3.0
facet normal 0.000000 1.000000 -0.000000
outer loop
vertex 0.000000 1.203201 0.000000
vertex 0.746304 1.203201 0.746304
vertex 1.072114 1.203201 0.000000
endloop
endfacet
facet normal -0.000000 1.000000 -0.000000
outer loop
vertex -0.746304 1.203201 0.746304
vertex 0.000000 1.203201 0.000000
vertex -1.072114 1.203201 0.000000
endloop
endfacet
facet normal -0.000000 1.000000 0.000000
outer loop
vertex -0.746304 1.203201 -0.746304
vertex 0.000000 1.203201 0.000000
vertex 0.000000 1.203201 -1.114011
endloop
endfacet
facet normal 0.000000 1.000000 0.000000
outer loop
vertex 0.000000 1.203201 0.000000
vertex 0.746304 1.203201 -0.746304
vertex 0.000000 1.203201 -1.114011
endloop
endfacet
facet normal -0.000000 -1.000000 -0.000000
outer loop
vertex 0.000000 -0.448009 0.000000
vertex 0.588118 -0.448009 0.588118
vertex 0.000000 -0.448009 0.877887
endloop
endfacet
facet normal 0.000000 -1.000000 -0.000000
outer loop
vertex 0.000000 -0.448009 0.000000
vertex -0.588118 -0.448009 0.588118
vertex -0.844870 -0.448009 0.000000
endloop
endfacet
facet normal 0.000000 -1.000000 0.000000
outer loop
vertex -0.588118 -0.448009 -0.588118
vertex 0.000000 -0.448009 0.000000
vertex -0.844870 -0.448009 0.000000
endloop
endfacet
facet normal -0.000000 -1.000000 0.000000
outer loop
vertex 0.588118 -0.448009 -0.588118
vertex 0.000000 -0.448009 0.000000
vertex 0.000000 -0.448009 -0.877886
endloop
endfacet
facet normal -0.438378 -0.127234 -0.889739
outer loop
vertex -0.746304 1.203201 -0.746304
vertex 0.000000 -0.448009 -0.877886
vertex -0.588118 -0.448009 -0.588118
endloop
endfacet
facet normal 0.909268 -0.125136 0.396954
outer loop
vertex 0.746304 1.203201 0.746304
vertex 0.844870 -0.448009 0.000000
vertex 1.072114 1.203201 0.000000
endloop
endfacet
facet normal -0.909268 -0.125136 -0.396954
outer loop
vertex -0.746304 1.203201 -0.746304
vertex -0.844870 -0.448009 0.000000
vertex -1.072114 1.203201 0.000000
endloop
endfacet
facet normal -0.909268 -0.125136 0.396954
outer loop
vertex -0.746304 1.203201 0.746304
vertex -0.844870 -0.448009 0.000000
vertex -0.588118 -0.448009 0.588118
endloop
endfacet
facet normal 0.438378 -0.127234 0.889739
outer loop
vertex 0.746304 1.203201 0.746304
vertex 0.000000 -0.448009 0.877887
vertex 0.588118 -0.448009 0.588118
endloop
endfacet
facet normal -0.438378 -0.127234 0.889739
outer loop
vertex -0.746304 1.203201 0.746304
vertex 0.000000 -0.448009 0.877887
vertex 0.000000 1.203201 1.114011
endloop
endfacet
facet normal 0.438378 -0.127234 -0.889739
outer loop
vertex 0.746304 1.203201 -0.746304
vertex 0.000000 -0.448009 -0.877886
vertex 0.000000 1.203201 -1.114011
endloop
endfacet
facet normal 0.909268 -0.125136 -0.396954
outer loop
vertex 0.746304 1.203201 -0.746304
vertex 0.844870 -0.448009 0.000000
vertex 0.588118 -0.448009 -0.588118
endloop
endfacet
facet normal -0.900599 0.434651 0.000000
outer loop
vertex -1.251654 -0.988329 1.251654
vertex -0.636849 0.285549 -0.650382
vertex -1.251654 -0.988329 -1.251654
endloop
endfacet
facet normal 0.000000 1.000000 0.000000
outer loop
vertex -0.636849 0.285549 0.650382
vertex 0.636849 0.285549 -0.650382
vertex -0.636849 0.285549 -0.650382
endloop
endfacet
facet normal 0.900599 0.434651 0.000000
outer loop
vertex 0.636849 0.285549 0.650382
vertex 1.251654 -0.988329 -1.251654
vertex 0.636849 0.285549 -0.650382
endloop
endfacet
facet normal 0.000000 -1.000000 0.000000
outer loop
vertex 1.251654 -0.988329 1.251654
vertex -1.251654 -0.988329 -1.251654
vertex 1.251654 -0.988329 -1.251654
endloop
endfacet
facet normal 0.000000 0.426843 -0.904326
outer loop
vertex 0.636849 0.285549 -0.650382
vertex -1.251654 -0.988329 -1.251654
vertex -0.636849 0.285549 -0.650382
endloop
endfacet
facet normal 0.000000 0.426843 0.904326
outer loop
vertex -0.636849 0.285549 0.650382
vertex 1.251654 -0.988329 1.251654
vertex 0.636849 0.285549 0.650382
endloop
endfacet
facet normal 0.000000 1.000000 0.000000
outer loop
vertex 0.000000 1.203201 0.000000
vertex 0.000000 1.203201 1.114011
vertex 0.746304 1.203201 0.746304
endloop
endfacet
facet normal -0.000000 1.000000 0.000000
outer loop
vertex -0.746304 1.203201 0.746304
vertex 0.000000 1.203201 1.114011
vertex 0.000000 1.203201 0.000000
endloop
endfacet
facet normal -0.000000 1.000000 0.000000
outer loop
vertex -0.746304 1.203201 -0.746304
vertex -1.072114 1.203201 0.000000
vertex 0.000000 1.203201 0.000000
endloop
endfacet
facet normal 0.000000 1.000000 0.000000
outer loop
vertex 0.000000 1.203201 0.000000
vertex 1.072114 1.203201 0.000000
vertex 0.746304 1.203201 -0.746304
endloop
endfacet
facet normal -0.000000 -1.000000 -0.000000
outer loop
vertex 0.000000 -0.448009 0.000000
vertex 0.844870 -0.448009 0.000000
vertex 0.588118 -0.448009 0.588118
endloop
endfacet
facet normal 0.000000 -1.000000 -0.000000
outer loop
vertex 0.000000 -0.448009 0.000000
vertex 0.000000 -0.448009 0.877887
vertex -0.588118 -0.448009 0.588118
endloop
endfacet
facet normal 0.000000 -1.000000 0.000000
outer loop
vertex -0.588118 -0.448009 -0.588118
vertex 0.000000 -0.448009 -0.877886
vertex 0.000000 -0.448009 0.000000
endloop
endfacet
facet normal -0.000000 -1.000000 0.000000
outer loop
vertex 0.588118 -0.448009 -0.588118
vertex 0.844870 -0.448009 0.000000
vertex 0.000000 -0.448009 0.000000
endloop
endfacet
facet normal -0.438378 -0.127234 -0.889739
outer loop
vertex -0.746304 1.203201 -0.746304
vertex 0.000000 1.203201 -1.114011
vertex 0.000000 -0.448009 -0.877886
endloop
endfacet
facet normal 0.909268 -0.125136 0.396954
outer loop
vertex 0.746304 1.203201 0.746304
vertex 0.588118 -0.448009 0.588118
vertex 0.844870 -0.448009 0.000000
endloop
endfacet
facet normal -0.909268 -0.125136 -0.396954
outer loop
vertex -0.746304 1.203201 -0.746304
vertex -0.588118 -0.448009 -0.588118
vertex -0.844870 -0.448009 0.000000
endloop
endfacet
facet normal -0.909268 -0.125136 0.396954
outer loop
vertex -0.746304 1.203201 0.746304
vertex -1.072114 1.203201 0.000000
vertex -0.844870 -0.448009 0.000000
endloop
endfacet
facet normal 0.438378 -0.127234 0.889739
outer loop
vertex 0.746304 1.203201 0.746304
vertex 0.000000 1.203201 1.114011
vertex 0.000000 -0.448009 0.877887
endloop
endfacet
facet normal -0.438378 -0.127234 0.889739
outer loop
vertex -0.746304 1.203201 0.746304
vertex -0.588118 -0.448009 0.588118
vertex 0.000000 -0.448009 0.877887
endloop
endfacet
facet normal 0.438378 -0.127234 -0.889739
outer loop
vertex 0.746304 1.203201 -0.746304
vertex 0.588118 -0.448009 -0.588118
vertex 0.000000 -0.448009 -0.877886
endloop
endfacet
facet normal 0.909268 -0.125136 -0.396954
outer loop
vertex 0.746304 1.203201 -0.746304
vertex 1.072114 1.203201 0.000000
vertex 0.844870 -0.448009 0.000000
endloop
endfacet
facet normal -0.900599 0.434651 0.000000
outer loop
vertex -1.251654 -0.988329 1.251654
vertex -0.636849 0.285549 0.650382
vertex -0.636849 0.285549 -0.650382
endloop
endfacet
facet normal 0.000000 1.000000 0.000000
outer loop
vertex -0.636849 0.285549 0.650382
vertex 0.636849 0.285549 0.650382
vertex 0.636849 0.285549 -0.650382
endloop
endfacet
facet normal 0.900599 0.434651 0.000000
outer loop
vertex 0.636849 0.285549 0.650382
vertex 1.251654 -0.988329 1.251654
vertex 1.251654 -0.988329 -1.251654
endloop
endfacet
facet normal 0.000000 -1.000000 0.000000
outer loop
vertex 1.251654 -0.988329 1.251654
vertex -1.251654 -0.988329 1.251654
vertex -1.251654 -0.988329 -1.251654
endloop
endfacet
facet normal 0.000000 0.426843 -0.904326
outer loop
vertex 0.636849 0.285549 -0.650382
vertex 1.251654 -0.988329 -1.251654
vertex -1.251654 -0.988329 -1.251654
endloop
endfacet
facet normal 0.000000 0.426843 0.904326
outer loop
vertex -0.636849 0.285549 0.650382
vertex -1.251654 -0.988329 1.251654
vertex 1.251654 -0.988329 1.251654
endloop
endfacet
endsolid Exported from Blender-3.3.0
